 http://imageshack.us/m/825/2593/flirtingwithforty282008.jpg

Country.......: USA
Genre.........: Comedy, Drama, Romance
Date release..: 06.12.2008 [World]
Director......: Mikael Salomon
Writers.......: Julia Dahl, Jane Porter
Duration......: 87 min.
More..........: http://www.imdb.com/title/tt1182887
Trailer.......:

Pilot :
A divorced mother approaching her 40th birthday falls for a younger man while on vacation. 

Cats :
Heather Locklear   	 ...  	Jackie Laurens
Robert Buckley 	... 	Kyle Hamilton
Vanessa Williams 	... 	Kristine
Cameron Bancroft 	... 	Daniel Laurens
Sam Duke 	... 	Will Laurens
Anne Hawthorne 	... 	Clare
Chelah Horsdal 	... 	Anne
Stefanie von Pfetten 	... 	Nicole
Jamie Bloch 	... 	Jessica
Ted Whittall 	... 	Dr. Sonnet
Christy Greene 	... 	Melinda
Tracy Trueman 	... 	Sabrina
Katie Westman 	... 	Lisa
James Brennan 	... 	Michael
Thomas Meharey 	... 	Andrew (as Tommy Meharey) 

Data Technical :
!!! SAMPLE !!!
Audio.....: Angielskie
Subtitles.: English .srt, Spanish .srt, Russian .srt, Polish .txt
Format                           : AVI
Format/Info                      : Audio Video Interleave
File size                        : 700 MiB
Duration                         : 1h 27mn
Overall bit rate                 : 1 121 Kbps
Writing application              : Nandub v1.0rc2
Writing library                  : Nandub build 1852/release
Video
ID                               : 0
Format                           : MPEG-4 Visual
Format profile                   : Advanced Simple@L5
Format settings, BVOP            : Yes
Format settings, QPel            : No
Format settings, GMC             : No warppoints
Format settings, Matrix          : Default (H.263)
Muxing mode                      : Packed bitstream
Codec ID                         : XVID
Codec ID/Hint                    : XviD
Duration                         : 1h 27mn
Bit rate                         : 979 Kbps
Width                            : 640 pixels
Height                           : 352 pixels
Display aspect ratio             : 16:9
Frame rate                       : 23.976 fps
Color space                      : YUV
Chroma subsampling               : 4:2:0
Bit depth                        : 8 bits
Scan type                        : Progressive
Bits/(Pixel*Frame)               : 0.181
Stream size                      : 612 MiB (87%)
Writing library                  : XviD 1.0.3 (UTC 2004-12-20)
Audio
ID                               : 1
Format                           : MPEG Audio
Format version                   : Version 1
Format profile                   : Layer 3
Mode                             : Joint stereo
Codec ID                         : 55
Codec ID/Hint                    : MP3
Duration                         : 1h 27mn
Bit rate mode                    : Variable
Bit rate                         : 128 Kbps
Channel(s)                       : 2 channels
Sampling rate                    : 48.0 KHz
Video delay                      : 432ms
Stream size                      : 80.7 MiB (12%)
Alignment                        : Aligned on interleaves
Interleave, duration             : 24 ms (0.58 video frame)
Interleave, preload duration     : 1322 ms
Writing library                  : LAME3.90.
Encoding settings                : -m j -V 4 -q 2 -lowpass 17.6 --abr 128

Screen : 
http://imageshack.us/m/217/2900/flirtingwithforty2008s1.jpg 
http://imageshack.us/m/62/7470/flirtingwithforty2008s2.jpg 
http://imageshack.us/m/685/2131/flirtingwithforty2008s3.jpg 
http://imageshack.us/m/84/6881/flirtingwithforty2008s4.jpg 
http://imageshack.us/m/859/598/flirtingwithforty2008s5.jpg